<svg aria-hidden="true" style="position: absolute; width: 0; height: 0; overflow: hidden;" version="1.1" xmlns="http://www.w3.org/2000/svg" xmlns:xlink="http://www.w3.org/1999/xlink">
    <defs>
        <symbol id="icon-Wrench-Doc" viewBox="0 0 95 32">
            <path fill="#5a5a5a" d="M0.792 31.328v-31.328h11.774c4.846 0 8.712 1.507 11.596 4.52s4.326 6.728 4.326 11.144c0 4.416-1.442 8.13-4.326 11.144-2.854 3.013-6.72 4.52-11.596 4.52h-11.774zM8.017 25.241h3.88c2.914 0 5.159-0.925 6.734-2.775 1.606-1.88 2.408-4.147 2.408-6.803s-0.803-4.908-2.408-6.758c-1.576-1.88-3.821-2.82-6.734-2.82h-3.88v19.155z"></path>
            <path fill="#5a5a5a" d="M71.612 32c-3.509 0-6.303-1.044-8.385-3.133-2.081-2.118-3.122-4.893-3.122-8.324s1.041-6.191 3.122-8.28 4.876-3.133 8.385-3.133c3.181 0 5.768 0.791 7.76 2.372s3.122 3.73 3.39 6.445h-6.824c-0.505-2.029-1.933-3.043-4.281-3.043-1.487 0-2.646 0.492-3.479 1.477s-1.249 2.372-1.249 4.162c0 1.79 0.416 3.178 1.249 4.162s1.992 1.477 3.479 1.477c2.349 0 3.776-0.955 4.281-2.864h6.824c-0.268 2.655-1.397 4.774-3.39 6.355-1.992 1.551-4.579 2.327-7.76 2.327z"></path>
            <path fill="#5a5a5a" d="M37.982 16.673l-9.249 15.184h-18.498l-0.082-0.134 5.19-4.915c1.079 0.361 2.246 0.567 3.46 0.567 5.66 0 10.24-4.348 10.24-9.708 0-1.54-0.375-2.986-1.044-4.27l-5.366 5.087c-0.241 0.228-0.51 0.411-0.804 0.556-1.255 0.628-2.839 0.439-3.888-0.556s-1.249-2.502-0.592-3.686v-0.006c0.158-0.278 0.352-0.528 0.592-0.756l5.366-5.087c-1.355-0.634-2.886-0.995-4.504-0.995-5.654 0-10.24 4.348-10.24 9.713 0 1.151 0.217 2.263 0.604 3.286l-3.531 3.353-4.651-7.634 9.249-15.19h18.498l9.249 15.19z"></path>
            <path fill="#5a5a5a" d="M93.373 30.478c-0.833 0.865-1.873 1.298-3.122 1.298s-2.304-0.433-3.167-1.298c-0.833-0.865-1.249-1.895-1.249-3.088 0-1.223 0.416-2.253 1.249-3.088 0.862-0.865 1.918-1.298 3.167-1.298s2.289 0.433 3.122 1.298c0.862 0.835 1.293 1.865 1.293 3.088 0 1.193-0.431 2.223-1.293 3.088z"></path>
        </symbol>
        <symbol id="Vector" viewBox="0 0 39 32">
    <path fill="#5a5a5a" d="M37.982 16.673l-9.249 15.184h-18.498l-0.082-0.134 5.19-4.915c1.079 0.361 2.246 0.567 3.46 0.567 5.66 0 10.24-4.348 10.24-9.708 0-1.54-0.375-2.986-1.044-4.27l-5.366 5.087c-0.241 0.228-0.51 0.411-0.804 0.556-1.255 0.628-2.839 0.439-3.888-0.556s-1.249-2.502-0.592-3.686v-0.006c0.158-0.278 0.352-0.528 0.592-0.756l5.366-5.087c-1.355-0.634-2.886-0.995-4.504-0.995-5.654 0-10.24 4.348-10.24 9.713 0 1.151 0.217 2.263 0.604 3.286l-3.531 3.353-4.651-7.634 9.249-15.19h18.498l9.249 15.19z"></path>
    </symbol>
    </defs>
</svg>